<svg class="diagram-root" style="background: #f5f6f6" xmlns="http://www.w3.org/2000/svg" xmlns:xlink="http://www.w3.org/1999/xlink"><style>.diagram-root { font-family: "Helvetica Neue", sans-serif; font-size: 12px; } .t { overflow: visible; } .t-bg { y: 40; fill: #fff;   } .th { fill: #005aa0;   } .tht { fill: #fff; font-size: 14px;  } .tf { fill: #323c46; overflow: visible; } .tf.pk { fill: #005aa0; font-weight: bold; } .tf.fk { font-weight: bold; } .ty { fill: #adb1b5; font-weight: normal; text-anchor: end; } .r { fill: transparent; stroke: #c3c3c3; stroke-width: 1; } .l { stroke: 1; } .i { fill: #c2c7ce; stroke: #c2c7ce; } .i.ix { fill: #afb3b6; stroke: #000; } .fa { fill: transparent; overflow: visible; } .fa .bg.hover { fill: #f7f7f7; } .c { cy: 12; r: 4; stroke: #d2d2dc; fill: #d2d2dc; } .hr { fill: transparent; stroke: #323c46; stroke-opacity: 0.035; stroke-width: 13; } .dc { stroke: #fa5a3c; fill: #fa5a3c; } .x { stroke: white; stroke-width: 1; } .hl .th { fill: #1b9bff; } .hl .tht {  } .fhl .bg { fill: #e7f4ff; } .fhls .bg {  } .r.hl { stroke: #1b9bff; } .dim { opacity: 0.25; }</style><g class="drawing-wrapper" transform="translate(672, 808.333333333333) scale(1,1)"><g class="rs"><path d="M -42.43 -364.25 m -1, 0 a 1,1 0 1,0 2,0 a 1,1 0 1,0 -2,0 M -42.43 -364.25 m -0.5, 0 a 0.5,0.5 0 1,0 1,0 a 0.5,0.5 0 1,0 -1,0  M-42.43 -364.25 L-42.43 -364.25 -30.43 -364.25 M -42.43 -358.25 m -1, 0 a 1,1 0 1,0 2,0 a 1,1 0 1,0 -2,0 M -42.43 -358.25 m -0.5, 0 a 0.5,0.5 0 1,0 1,0 a 0.5,0.5 0 1,0 -1,0  M-42.43 -358.25 L-42.43 -358.25 -35.43 -364.25 -42.43 -370.25 M -42.43 -370.25 m -1, 0 a 1,1 0 1,0 2,0 a 1,1 0 1,0 -2,0 M -42.43 -370.25 m -0.5, 0 a 0.5,0.5 0 1,0 1,0 a 0.5,0.5 0 1,0 -1,0  M-30.43 -364.25 Q 16.78 -364.25, 63.99 -542.79 T 158.42 -721.33 M 170.42 -721.33 m -1, 0 a 1,1 0 1,0 2,0 a 1,1 0 1,0 -2,0 M 170.42 -721.33 m -0.5, 0 a 0.5,0.5 0 1,0 1,0 a 0.5,0.5 0 1,0 -1,0  M170.42 -721.33 L170.42 -721.33 158.42 -721.33 M164.42 -715.33 L164.42 -715.33 164.42 -727.33" id="h4211251171" class="r"></path><path d="M -456.18 96.58 m -1, 0 a 1,1 0 1,0 2,0 a 1,1 0 1,0 -2,0 M -456.18 96.58 m -0.5, 0 a 0.5,0.5 0 1,0 1,0 a 0.5,0.5 0 1,0 -1,0  M-456.18 96.58 L-456.18 96.58 -444.18 96.58 M -456.18 102.58 m -1, 0 a 1,1 0 1,0 2,0 a 1,1 0 1,0 -2,0 M -456.18 102.58 m -0.5, 0 a 0.5,0.5 0 1,0 1,0 a 0.5,0.5 0 1,0 -1,0  M-456.18 102.58 L-456.18 102.58 -449.18 96.58 -456.18 90.58 M -456.18 90.58 m -1, 0 a 1,1 0 1,0 2,0 a 1,1 0 1,0 -2,0 M -456.18 90.58 m -0.5, 0 a 0.5,0.5 0 1,0 1,0 a 0.5,0.5 0 1,0 -1,0  M-444.18 96.58 Q -395.19 96.58, -346.21 -133.83 T -248.25 -364.25 M -236.25 -364.25 m -1, 0 a 1,1 0 1,0 2,0 a 1,1 0 1,0 -2,0 M -236.25 -364.25 m -0.5, 0 a 0.5,0.5 0 1,0 1,0 a 0.5,0.5 0 1,0 -1,0  M-236.25 -364.25 L-236.25 -364.25 -248.25 -364.25 M-242.25 -358.25 L-242.25 -358.25 -242.25 -370.25" id="h2495431159" class="r"></path><path d="M -383.75 102 m -1, 0 a 1,1 0 1,0 2,0 a 1,1 0 1,0 -2,0 M -383.75 102 m -0.5, 0 a 0.5,0.5 0 1,0 1,0 a 0.5,0.5 0 1,0 -1,0  M-383.75 102 L-383.75 102 -395.75 102 M -383.75 108 m -1, 0 a 1,1 0 1,0 2,0 a 1,1 0 1,0 -2,0 M -383.75 108 m -0.5, 0 a 0.5,0.5 0 1,0 1,0 a 0.5,0.5 0 1,0 -1,0  M-383.75 108 L-383.75 108 -390.75 102 -383.75 96 M -383.75 96 m -1, 0 a 1,1 0 1,0 2,0 a 1,1 0 1,0 -2,0 M -383.75 96 m -0.5, 0 a 0.5,0.5 0 1,0 1,0 a 0.5,0.5 0 1,0 -1,0  M-395.75 102 C -445.75 102, -534.25 -364.25, -248.25 -364.25 M -236.25 -364.25 m -1, 0 a 1,1 0 1,0 2,0 a 1,1 0 1,0 -2,0 M -236.25 -364.25 m -0.5, 0 a 0.5,0.5 0 1,0 1,0 a 0.5,0.5 0 1,0 -1,0  M-236.25 -364.25 L-236.25 -364.25 -248.25 -364.25 M-242.25 -358.25 L-242.25 -358.25 -242.25 -370.25" id="h932794278" class="r"></path><path d="M -133.75 102 m -1, 0 a 1,1 0 1,0 2,0 a 1,1 0 1,0 -2,0 M -133.75 102 m -0.5, 0 a 0.5,0.5 0 1,0 1,0 a 0.5,0.5 0 1,0 -1,0  M-133.75 102 L-133.75 102 -145.75 102 M -133.75 108 m -1, 0 a 1,1 0 1,0 2,0 a 1,1 0 1,0 -2,0 M -133.75 108 m -0.5, 0 a 0.5,0.5 0 1,0 1,0 a 0.5,0.5 0 1,0 -1,0  M-133.75 108 L-133.75 108 -140.75 102 -133.75 96 M -133.75 96 m -1, 0 a 1,1 0 1,0 2,0 a 1,1 0 1,0 -2,0 M -133.75 96 m -0.5, 0 a 0.5,0.5 0 1,0 1,0 a 0.5,0.5 0 1,0 -1,0  M-145.75 102 C -359.75 102, -298.25 -364.25, -248.25 -364.25 M -236.25 -364.25 m -1, 0 a 1,1 0 1,0 2,0 a 1,1 0 1,0 -2,0 M -236.25 -364.25 m -0.5, 0 a 0.5,0.5 0 1,0 1,0 a 0.5,0.5 0 1,0 -1,0  M-236.25 -364.25 L-236.25 -364.25 -248.25 -364.25 M-242.25 -358.25 L-242.25 -358.25 -242.25 -370.25" id="h636857500" class="r"></path><path d="M 136.25 102 m -1, 0 a 1,1 0 1,0 2,0 a 1,1 0 1,0 -2,0 M 136.25 102 m -0.5, 0 a 0.5,0.5 0 1,0 1,0 a 0.5,0.5 0 1,0 -1,0  M136.25 102 L136.25 102 124.25 102 M 136.25 108 m -1, 0 a 1,1 0 1,0 2,0 a 1,1 0 1,0 -2,0 M 136.25 108 m -0.5, 0 a 0.5,0.5 0 1,0 1,0 a 0.5,0.5 0 1,0 -1,0  M136.25 108 L136.25 108 129.25 102 136.25 96 M 136.25 96 m -1, 0 a 1,1 0 1,0 2,0 a 1,1 0 1,0 -2,0 M 136.25 96 m -0.5, 0 a 0.5,0.5 0 1,0 1,0 a 0.5,0.5 0 1,0 -1,0  M124.25 102 Q 85.58 102, 46.91 -131.12 T -30.43 -364.25 M -42.43 -364.25 m -1, 0 a 1,1 0 1,0 2,0 a 1,1 0 1,0 -2,0 M -42.43 -364.25 m -0.5, 0 a 0.5,0.5 0 1,0 1,0 a 0.5,0.5 0 1,0 -1,0  M-42.43 -364.25 L-42.43 -364.25 -30.43 -364.25 M-36.43 -358.25 L-36.43 -358.25 -36.43 -370.25" id="h3598118175" class="r"></path><path d="M 656.67 -366.75 m -1, 0 a 1,1 0 1,0 2,0 a 1,1 0 1,0 -2,0 M 656.67 -366.75 m -0.5, 0 a 0.5,0.5 0 1,0 1,0 a 0.5,0.5 0 1,0 -1,0  M656.67 -366.75 L656.67 -366.75 644.67 -366.75 M 656.67 -360.75 m -1, 0 a 1,1 0 1,0 2,0 a 1,1 0 1,0 -2,0 M 656.67 -360.75 m -0.5, 0 a 0.5,0.5 0 1,0 1,0 a 0.5,0.5 0 1,0 -1,0  M656.67 -360.75 L656.67 -360.75 649.67 -366.75 656.67 -372.75 M 656.67 -372.75 m -1, 0 a 1,1 0 1,0 2,0 a 1,1 0 1,0 -2,0 M 656.67 -372.75 m -0.5, 0 a 0.5,0.5 0 1,0 1,0 a 0.5,0.5 0 1,0 -1,0  M644.67 -366.75 Q 577.56 -366.75, 510.46 -544.04 T 376.24 -721.33 M 364.24 -721.33 m -1, 0 a 1,1 0 1,0 2,0 a 1,1 0 1,0 -2,0 M 364.24 -721.33 m -0.5, 0 a 0.5,0.5 0 1,0 1,0 a 0.5,0.5 0 1,0 -1,0  M364.24 -721.33 L364.24 -721.33 376.24 -721.33 M370.24 -715.33 L370.24 -715.33 370.24 -727.33" id="h3456635340" class="r"></path><path d="M 492.5 105.33 m -1, 0 a 1,1 0 1,0 2,0 a 1,1 0 1,0 -2,0 M 492.5 105.33 m -0.5, 0 a 0.5,0.5 0 1,0 1,0 a 0.5,0.5 0 1,0 -1,0  M492.5 105.33 L492.5 105.33 480.5 105.33 M 492.5 111.33 m -1, 0 a 1,1 0 1,0 2,0 a 1,1 0 1,0 -2,0 M 492.5 111.33 m -0.5, 0 a 0.5,0.5 0 1,0 1,0 a 0.5,0.5 0 1,0 -1,0  M492.5 111.33 L492.5 111.33 485.5 105.33 492.5 99.33 M 492.5 99.33 m -1, 0 a 1,1 0 1,0 2,0 a 1,1 0 1,0 -2,0 M 492.5 99.33 m -0.5, 0 a 0.5,0.5 0 1,0 1,0 a 0.5,0.5 0 1,0 -1,0  M480.5 105.33 C 430.5 105.33, 331.998 -366.75, 644.67 -366.75 M 656.67 -366.75 m -1, 0 a 1,1 0 1,0 2,0 a 1,1 0 1,0 -2,0 M 656.67 -366.75 m -0.5, 0 a 0.5,0.5 0 1,0 1,0 a 0.5,0.5 0 1,0 -1,0  M656.67 -366.75 L656.67 -366.75 644.67 -366.75 M650.67 -360.75 L650.67 -360.75 650.67 -372.75" id="h2002078681" class="r"></path><path d="M 744.17 103.67 m -1, 0 a 1,1 0 1,0 2,0 a 1,1 0 1,0 -2,0 M 744.17 103.67 m -0.5, 0 a 0.5,0.5 0 1,0 1,0 a 0.5,0.5 0 1,0 -1,0  M744.17 103.67 L744.17 103.67 732.17 103.67 M 744.17 109.67 m -1, 0 a 1,1 0 1,0 2,0 a 1,1 0 1,0 -2,0 M 744.17 109.67 m -0.5, 0 a 0.5,0.5 0 1,0 1,0 a 0.5,0.5 0 1,0 -1,0  M744.17 109.67 L744.17 109.67 737.17 103.67 744.17 97.67 M 744.17 97.67 m -1, 0 a 1,1 0 1,0 2,0 a 1,1 0 1,0 -2,0 M 744.17 97.67 m -0.5, 0 a 0.5,0.5 0 1,0 1,0 a 0.5,0.5 0 1,0 -1,0  M732.17 103.67 C 542.17 103.67, 594.67 -366.75, 644.67 -366.75 M 656.67 -366.75 m -1, 0 a 1,1 0 1,0 2,0 a 1,1 0 1,0 -2,0 M 656.67 -366.75 m -0.5, 0 a 0.5,0.5 0 1,0 1,0 a 0.5,0.5 0 1,0 -1,0  M656.67 -366.75 L656.67 -366.75 644.67 -366.75 M650.67 -360.75 L650.67 -360.75 650.67 -372.75" id="h1399153088" class="r"></path><path d="M 992.5 104.5 m -1, 0 a 1,1 0 1,0 2,0 a 1,1 0 1,0 -2,0 M 992.5 104.5 m -0.5, 0 a 0.5,0.5 0 1,0 1,0 a 0.5,0.5 0 1,0 -1,0  M992.5 104.5 L992.5 104.5 980.5 104.5 M 992.5 110.5 m -1, 0 a 1,1 0 1,0 2,0 a 1,1 0 1,0 -2,0 M 992.5 110.5 m -0.5, 0 a 0.5,0.5 0 1,0 1,0 a 0.5,0.5 0 1,0 -1,0  M992.5 110.5 L992.5 110.5 985.5 104.5 992.5 98.5 M 992.5 98.5 m -1, 0 a 1,1 0 1,0 2,0 a 1,1 0 1,0 -2,0 M 992.5 98.5 m -0.5, 0 a 0.5,0.5 0 1,0 1,0 a 0.5,0.5 0 1,0 -1,0  M980.5 104.5 Q 951 104.5, 921.5 -131.12 T 862.49 -366.75 M 850.49 -366.75 m -1, 0 a 1,1 0 1,0 2,0 a 1,1 0 1,0 -2,0 M 850.49 -366.75 m -0.5, 0 a 0.5,0.5 0 1,0 1,0 a 0.5,0.5 0 1,0 -1,0  M850.49 -366.75 L850.49 -366.75 862.49 -366.75 M856.49 -360.75 L856.49 -360.75 856.49 -372.75" id="h1823074181" class="r"></path></g><g class="hrs"></g><g class="ts"><svg width="193.82" height="175" x="170.42" y="-778.33" id="h2999117268" class="t"><rect height="40" width="193.82" class="th"></rect><text x="13" y="25" class="tht">AIDB</text><rect height="135" width="193.82" class="t-bg"></rect><text x="13" y="61" class="tf pk">Country<tspan x="180.82" class="ty">VARCHAR(255)</tspan></text><path d="M7,14A2,2 0 0,1 5,12A2,2 0 0,1 7,10A2,2 0 0,1 9,12A2,2 0 0,1 7,14M12.65,10C11.83,7.67 9.61,6 7, 6A6, 6 0 0, 0 1, 12A6, 6 0 0, 0 7, 18C9.61, 18 11.83, 16.33 12.65, 14H17V18H21V14H23V10H12.65Z" class="i pk" transform="translate(75.0153125, 48) scale(0.65)"></path><text x="13" y="86" class="tf">City<tspan x="180.82" class="ty">VARCHAR(255)</tspan></text><text x="13" y="111" class="tf">Name<tspan x="180.82" class="ty">VARCHAR(255)</tspan></text><text x="13" y="136" class="tf">Cat<tspan x="180.82" class="ty">VARCHAR(255)</tspan></text><text x="13" y="161" class="tf">Website<tspan x="180.82" class="ty">VARCHAR(255)</tspan></text></svg><svg width="193.82" height="175" x="-236.25" y="-421.25" id="h737407067" class="t"><rect height="40" width="193.82" class="th"></rect><text x="13" y="25" class="tht">AI_Companies_Deals</text><rect height="135" width="193.82" class="t-bg"></rect><text x="13" y="61" class="tf pk">Country<tspan x="180.82" class="ty">VARCHAR(255)</tspan></text><path d="M7,14A2,2 0 0,1 5,12A2,2 0 0,1 7,10A2,2 0 0,1 9,12A2,2 0 0,1 7,14M12.65,10C11.83,7.67 9.61,6 7, 6A6, 6 0 0, 0 1, 12A6, 6 0 0, 0 7, 18C9.61, 18 11.83, 16.33 12.65, 14H17V18H21V14H23V10H12.65Z" class="i pk" transform="translate(75.0153125, 48) scale(0.65)"></path><text x="13" y="86" class="tf">Company_Count<tspan x="180.82" class="ty">INT</tspan></text><text x="13" y="111" class="tf">Deal_Count<tspan x="180.82" class="ty">INT</tspan></text><text x="13" y="136" class="tf">Capital_Invwsted<tspan x="180.82" class="ty">INT</tspan></text><text x="13" y="161" class="tf">Revenue<tspan x="180.82" class="ty">INT</tspan></text></svg><svg width="193.82" height="175" x="-650" y="39.58" id="h2208347304" class="t"><rect height="40" width="193.82" class="th"></rect><text x="13" y="25" class="tht">AICD_Company</text><rect height="135" width="193.82" class="t-bg"></rect><text x="13" y="61" class="tf pk">Country<tspan x="180.82" class="ty">VARCHAR(255)</tspan></text><path d="M7,14A2,2 0 0,1 5,12A2,2 0 0,1 7,10A2,2 0 0,1 9,12A2,2 0 0,1 7,14M12.65,10C11.83,7.67 9.61,6 7, 6A6, 6 0 0, 0 1, 12A6, 6 0 0, 0 7, 18C9.61, 18 11.83, 16.33 12.65, 14H17V18H21V14H23V10H12.65Z" class="i pk" transform="translate(75.0153125, 48) scale(0.65)"></path><text x="13" y="86" class="tf">Company_Count<tspan x="180.82" class="ty">INT</tspan></text><text x="13" y="111" class="tf">Deal_Count<tspan x="180.82" class="ty">INT</tspan></text><text x="13" y="136" class="tf">Capital_Invwsted<tspan x="180.82" class="ty">INT</tspan></text><text x="13" y="161" class="tf">Revenue<tspan x="180.82" class="ty">INT</tspan></text></svg><svg width="193.82" height="175" x="-383.75" y="45" id="h2395903835" class="t"><rect height="40" width="193.82" class="th"></rect><text x="13" y="25" class="tht">AICD_Deals</text><rect height="135" width="193.82" class="t-bg"></rect><text x="13" y="61" class="tf pk">Country<tspan x="180.82" class="ty">VARCHAR(255)</tspan></text><path d="M7,14A2,2 0 0,1 5,12A2,2 0 0,1 7,10A2,2 0 0,1 9,12A2,2 0 0,1 7,14M12.65,10C11.83,7.67 9.61,6 7, 6A6, 6 0 0, 0 1, 12A6, 6 0 0, 0 7, 18C9.61, 18 11.83, 16.33 12.65, 14H17V18H21V14H23V10H12.65Z" class="i pk" transform="translate(75.0153125, 48) scale(0.65)"></path><text x="13" y="86" class="tf">Company_Count<tspan x="180.82" class="ty">INT</tspan></text><text x="13" y="111" class="tf">Deal_Count<tspan x="180.82" class="ty">INT</tspan></text><text x="13" y="136" class="tf">Capital_Invwsted<tspan x="180.82" class="ty">INT</tspan></text><text x="13" y="161" class="tf">Revenue<tspan x="180.82" class="ty">INT</tspan></text></svg><svg width="193.82" height="175" x="-133.75" y="45" id="h1950171536" class="t"><rect height="40" width="193.82" class="th"></rect><text x="13" y="25" class="tht">AICD_Capital</text><rect height="135" width="193.82" class="t-bg"></rect><text x="13" y="61" class="tf pk">Country<tspan x="180.82" class="ty">VARCHAR(255)</tspan></text><path d="M7,14A2,2 0 0,1 5,12A2,2 0 0,1 7,10A2,2 0 0,1 9,12A2,2 0 0,1 7,14M12.65,10C11.83,7.67 9.61,6 7, 6A6, 6 0 0, 0 1, 12A6, 6 0 0, 0 7, 18C9.61, 18 11.83, 16.33 12.65, 14H17V18H21V14H23V10H12.65Z" class="i pk" transform="translate(75.0153125, 48) scale(0.65)"></path><text x="13" y="86" class="tf">Company_Count<tspan x="180.82" class="ty">INT</tspan></text><text x="13" y="111" class="tf">Deal_Count<tspan x="180.82" class="ty">INT</tspan></text><text x="13" y="136" class="tf">Capital_Invwsted<tspan x="180.82" class="ty">INT</tspan></text><text x="13" y="161" class="tf">Revenue<tspan x="180.82" class="ty">INT</tspan></text></svg><svg width="193.82" height="175" x="136.25" y="45" id="h2977502530" class="t"><rect height="40" width="193.82" class="th"></rect><text x="13" y="25" class="tht">AICD_Revenue</text><rect height="135" width="193.82" class="t-bg"></rect><text x="13" y="61" class="tf pk">Country<tspan x="180.82" class="ty">VARCHAR(255)</tspan></text><path d="M7,14A2,2 0 0,1 5,12A2,2 0 0,1 7,10A2,2 0 0,1 9,12A2,2 0 0,1 7,14M12.65,10C11.83,7.67 9.61,6 7, 6A6, 6 0 0, 0 1, 12A6, 6 0 0, 0 7, 18C9.61, 18 11.83, 16.33 12.65, 14H17V18H21V14H23V10H12.65Z" class="i pk" transform="translate(75.0153125, 48) scale(0.65)"></path><text x="13" y="86" class="tf">Company_Count<tspan x="180.82" class="ty">INT</tspan></text><text x="13" y="111" class="tf">Deal_Count<tspan x="180.82" class="ty">INT</tspan></text><text x="13" y="136" class="tf">Capital_Invwsted<tspan x="180.82" class="ty">INT</tspan></text><text x="13" y="161" class="tf">Revenue<tspan x="180.82" class="ty">INT</tspan></text></svg><svg width="193.82" height="175" x="656.67" y="-423.75" id="h2698588679" class="t"><rect height="40" width="193.82" class="th"></rect><text x="13" y="25" class="tht">Tech_Companies_Deals</text><rect height="135" width="193.82" class="t-bg"></rect><text x="13" y="61" class="tf pk">Country<tspan x="180.82" class="ty">VARCHAR(255)</tspan></text><path d="M7,14A2,2 0 0,1 5,12A2,2 0 0,1 7,10A2,2 0 0,1 9,12A2,2 0 0,1 7,14M12.65,10C11.83,7.67 9.61,6 7, 6A6, 6 0 0, 0 1, 12A6, 6 0 0, 0 7, 18C9.61, 18 11.83, 16.33 12.65, 14H17V18H21V14H23V10H12.65Z" class="i pk" transform="translate(75.0153125, 48) scale(0.65)"></path><text x="13" y="86" class="tf">Company_Count<tspan x="180.82" class="ty">INT</tspan></text><text x="13" y="111" class="tf">Deal_Count<tspan x="180.82" class="ty">INT</tspan></text><text x="13" y="136" class="tf">Capital_Invwsted<tspan x="180.82" class="ty">INT</tspan></text><text x="13" y="161" class="tf">Revenue<tspan x="180.82" class="ty">INT</tspan></text></svg><svg width="193.82" height="175" x="492.5" y="48.33" id="h783715653" class="t"><rect height="40" width="193.82" class="th"></rect><text x="13" y="25" class="tht">TCD_Company</text><rect height="135" width="193.82" class="t-bg"></rect><text x="13" y="61" class="tf pk">Country<tspan x="180.82" class="ty">VARCHAR(255)</tspan></text><path d="M7,14A2,2 0 0,1 5,12A2,2 0 0,1 7,10A2,2 0 0,1 9,12A2,2 0 0,1 7,14M12.65,10C11.83,7.67 9.61,6 7, 6A6, 6 0 0, 0 1, 12A6, 6 0 0, 0 7, 18C9.61, 18 11.83, 16.33 12.65, 14H17V18H21V14H23V10H12.65Z" class="i pk" transform="translate(75.0153125, 48) scale(0.65)"></path><text x="13" y="86" class="tf">Company_Count<tspan x="180.82" class="ty">INT</tspan></text><text x="13" y="111" class="tf">Deal_Count<tspan x="180.82" class="ty">INT</tspan></text><text x="13" y="136" class="tf">Capital_Invwsted<tspan x="180.82" class="ty">INT</tspan></text><text x="13" y="161" class="tf">Revenue<tspan x="180.82" class="ty">INT</tspan></text></svg><svg width="193.82" height="175" x="744.17" y="46.67" id="h3193156998" class="t"><rect height="40" width="193.82" class="th"></rect><text x="13" y="25" class="tht">TCD_Deals</text><rect height="135" width="193.82" class="t-bg"></rect><text x="13" y="61" class="tf pk">Country<tspan x="180.82" class="ty">VARCHAR(255)</tspan></text><path d="M7,14A2,2 0 0,1 5,12A2,2 0 0,1 7,10A2,2 0 0,1 9,12A2,2 0 0,1 7,14M12.65,10C11.83,7.67 9.61,6 7, 6A6, 6 0 0, 0 1, 12A6, 6 0 0, 0 7, 18C9.61, 18 11.83, 16.33 12.65, 14H17V18H21V14H23V10H12.65Z" class="i pk" transform="translate(75.0153125, 48) scale(0.65)"></path><text x="13" y="86" class="tf">Company_Count<tspan x="180.82" class="ty">INT</tspan></text><text x="13" y="111" class="tf">Deal_Count<tspan x="180.82" class="ty">INT</tspan></text><text x="13" y="136" class="tf">Capital_Invwsted<tspan x="180.82" class="ty">INT</tspan></text><text x="13" y="161" class="tf">Revenue<tspan x="180.82" class="ty">INT</tspan></text></svg><svg width="193.82" height="175" x="992.5" y="47.5" id="h2099637850" class="t"><rect height="40" width="193.82" class="th"></rect><text x="13" y="25" class="tht">TCD_Capital</text><rect height="135" width="193.82" class="t-bg"></rect><text x="13" y="61" class="tf pk">Country<tspan x="180.82" class="ty">VARCHAR(255)</tspan></text><path d="M7,14A2,2 0 0,1 5,12A2,2 0 0,1 7,10A2,2 0 0,1 9,12A2,2 0 0,1 7,14M12.65,10C11.83,7.67 9.61,6 7, 6A6, 6 0 0, 0 1, 12A6, 6 0 0, 0 7, 18C9.61, 18 11.83, 16.33 12.65, 14H17V18H21V14H23V10H12.65Z" class="i pk" transform="translate(75.0153125, 48) scale(0.65)"></path><text x="13" y="86" class="tf">Company_Count<tspan x="180.82" class="ty">INT</tspan></text><text x="13" y="111" class="tf">Deal_Count<tspan x="180.82" class="ty">INT</tspan></text><text x="13" y="136" class="tf">Capital_Invwsted<tspan x="180.82" class="ty">INT</tspan></text><text x="13" y="161" class="tf">Revenue<tspan x="180.82" class="ty">INT</tspan></text></svg></g></g><text class="qdbd-link" x="10" y="20">www.quickdatabasediagrams.com</text></svg>